<?xml version="1.0" standalone="no"?>
<!DOCTYPE svg PUBLIC "-//W3C//DTD SVG 20010904//EN"
 "http://www.w3.org/TR/2001/REC-SVG-20010904/DTD/svg10.dtd">
<svg version="1.0" xmlns="http://www.w3.org/2000/svg"
 width="512.000000pt" height="512.000000pt" viewBox="0 0 512.000000 512.000000"
 preserveAspectRatio="xMidYMid meet">
<metadata>
Created by potrace 1.14, written by Peter Selinger 2001-2017
</metadata>
<g transform="translate(0.000000,512.000000) scale(0.100000,-0.100000)"
fill="#000000" stroke="none">
<path d="M1540 4470 c-87 -8 -142 -33 -206 -92 -61 -56 -91 -124 -104 -233
-14 -123 -14 -3048 0 -3169 18 -151 81 -245 208 -304 l57 -27 1060 0 1060 0
57 27 c79 37 121 71 157 126 64 101 61 5 61 1762 0 1767 4 1663 -65 1767 -19
28 -55 66 -81 84 -97 66 -37 63 -1134 64 -547 1 -1029 -1 -1070 -5z m341
-1458 c132 -69 182 -228 114 -362 -47 -92 -127 -139 -236 -140 -204 0 -330
212 -232 392 50 92 128 137 239 138 49 0 73 -6 115 -28z m800 0 c65 -34 113
-94 135 -168 20 -71 12 -134 -27 -202 -50 -88 -126 -131 -234 -131 -101 -1
-185 51 -232 143 -71 138 0 320 143 371 68 24 154 19 215 -13z m784 4 c119
-50 183 -196 143 -328 -15 -50 -78 -122 -132 -151 -58 -31 -174 -31 -232 0
-54 29 -117 101 -132 151 -36 121 3 229 111 312 51 38 169 46 242 16z m-1590
-804 c135 -70 187 -226 119 -359 -108 -212 -417 -184 -489 43 -39 125 18 258
138 319 45 23 61 26 122 22 44 -2 85 -11 110 -25z m800 0 c135 -69 187 -226
119 -359 -52 -102 -141 -150 -261 -140 -104 8 -199 81 -225 172 -15 52 -14
132 2 180 22 67 102 141 180 166 41 14 142 3 185 -19z m790 4 c119 -50 183
-196 143 -328 -15 -50 -78 -122 -132 -151 -58 -31 -174 -31 -232 0 -54 29
-117 101 -132 151 -36 121 3 229 111 312 51 38 169 46 242 16z m-829 -791
c117 -35 188 -130 188 -255 0 -55 -5 -75 -30 -121 -34 -60 -100 -112 -165
-129 -25 -7 -197 -10 -491 -8 l-453 3 -54 30 c-65 36 -103 81 -125 147 -27 86
-18 149 33 230 31 48 97 95 154 108 18 5 226 8 463 9 351 1 439 -2 480 -14z
m829 -9 c119 -50 183 -196 143 -328 -15 -50 -78 -122 -132 -151 -58 -31 -174
-31 -232 0 -54 29 -117 101 -132 151 -36 121 3 229 111 312 51 38 169 46 242
16z"/>
</g>
</svg>
